<?xml version="1.0" encoding="UTF-8" standalone="no"?>
<!-- Generator: Adobe Illustrator 19.2.1, SVG Export Plug-In . SVG Version: 6.00 Build 0)  -->

<svg
   xmlns:dc="http://purl.org/dc/elements/1.1/"
   xmlns:cc="http://creativecommons.org/ns#"
   xmlns:rdf="http://www.w3.org/1999/02/22-rdf-syntax-ns#"
   xmlns:svg="http://www.w3.org/2000/svg"
   xmlns="http://www.w3.org/2000/svg"
   xmlns:sodipodi="http://sodipodi.sourceforge.net/DTD/sodipodi-0.dtd"
   xmlns:inkscape="http://www.inkscape.org/namespaces/inkscape"
   version="1.1"
   id="Layer_1"
   x="0px"
   y="0px"
   viewBox="0 0 120 100"
   style="enable-background:new 0 0 120 100;"
   xml:space="preserve"
   sodipodi:docname="kodak_logo_yellow.svg"
   inkscape:version="0.92.2 (5c3e80d, 2017-08-06)"><metadata
     id="metadata21"><rdf:RDF><cc:Work
         rdf:about=""><dc:format>image/svg+xml</dc:format><dc:type
           rdf:resource="http://purl.org/dc/dcmitype/StillImage" /><dc:title></dc:title></cc:Work></rdf:RDF></metadata><defs
     id="defs19" /><sodipodi:namedview
     pagecolor="#ffffff"
     bordercolor="#666666"
     borderopacity="1"
     objecttolerance="10"
     gridtolerance="10"
     guidetolerance="10"
     inkscape:pageopacity="0"
     inkscape:pageshadow="2"
     inkscape:window-width="1732"
     inkscape:window-height="1358"
     id="namedview17"
     showgrid="false"
     inkscape:zoom="6.675088"
     inkscape:cx="58.445392"
     inkscape:cy="48.766547"
     inkscape:window-x="0"
     inkscape:window-y="0"
     inkscape:window-maximized="0"
     inkscape:current-layer="Layer_1" /><style
     type="text/css"
     id="style2">
	.st0{fill:#ED0000;}
</style><rect
     style="fill:#ffb700;fill-opacity:1;stroke:none;stroke-width:6.00061941;stroke-miterlimit:2.61312604;stroke-dasharray:none;stroke-opacity:1;paint-order:stroke markers fill"
     id="rect4519"
     width="120.01867"
     height="100.09383"
     x="-0.01012094"
     y="-0.23351847"
     ry="0" /><g
     id="g14"
     transform="matrix(0.66872111,0,0,0.66872111,20.724191,15.906779)"><path
       class="st0"
       d="m 15.8,53.9 c -0.6,-0.9 -1.6,-2.2 -1.6,-3.5 0,-1 0.3,-2 0.8,-2.8 L 45.2,5.8 C 45.5,5.5 45.5,5 45.5,4.5 45.5,3.2 44.5,2.2 43.2,2.2 H 11.9 C 8.1,2.2 5,5.5 5,9.3 v 81.6 c 0,3.9 3.1,7 6.9,7 0,0 30.8,0 31.3,0 1.3,0 2.3,-1 2.3,-2.3 0,-0.5 -0.2,-1 -0.4,-1.5 z"
       id="path4"
       inkscape:connector-curvature="0"
       style="fill:#ed0000" /><path
       class="st0"
       d="m 99,36.3 c 2.3,0 3.4,-1 3.4,-3.4 0,-2.1 -1.1,-3.1 -3.4,-3.1 -2.3,0 -3.4,0.9 -3.4,3.1 0.1,2.3 1.1,3.4 3.4,3.4 z"
       id="path6"
       inkscape:connector-curvature="0"
       style="fill:#ed0000" /><path
       class="st0"
       d="m 99.6,47 h -3.3 v 6.1 h 3.3 c 1.7,0 2.5,-1.1 2.5,-3.2 0,-2.1 -0.8,-2.9 -2.5,-2.9 z"
       id="path8"
       inkscape:connector-curvature="0"
       style="fill:#ed0000" /><path
       class="st0"
       d="M 108.1,2.2 H 76.9 c -2.8,0 -4.7,1.3 -7,3.3 L 18,49.5 c -0.3,0.3 -0.3,0.5 -0.3,0.9 0,0.3 0.1,0.6 0.3,0.9 l 53.3,44.6 c 1.5,1.2 3.5,2 5.6,2 H 108 c 3.9,0 7,-3.1 7,-7 V 9.3 c 0,-3.8 -3.1,-7.1 -6.9,-7.1 z M 93,10.4 h 3.3 v 4.8 l 4.8,-4.8 h 4.6 l -5.9,5.8 6.2,5.8 h -4.7 L 96.4,17.2 V 22 H 93 Z M 99,27 c 4.3,0 6.7,2.1 6.7,5.9 0,4 -2.4,6.2 -6.7,6.2 -4.3,0 -6.7,-2.3 -6.7,-6.2 0,-3.8 2.4,-5.9 6.7,-5.9 z m 6.4,22.9 c 0,4 -2,6 -5.8,6 H 93 V 44.1 h 6.6 c 4,0 5.8,1.9 5.8,5.8 z m -4.3,39.8 -4.9,-4.8 v 4.8 H 93 V 78.1 h 3.3 v 4.8 l 4.8,-4.8 h 4.4 l -5.7,5.8 6.2,5.8 z m 1.4,-16.9 -0.8,-2 h -5.3 l -0.8,2 h -3.5 l 5,-11.8 h 4 l 5,11.8 z"
       id="path10"
       inkscape:connector-curvature="0"
       style="fill:#ed0000" /><polygon
       class="st0"
       points="100.7,68.2 99,64.1 97.4,68.2 "
       id="polygon12"
       style="fill:#ed0000" /></g></svg>