<?xml version="1.0" encoding="UTF-8" standalone="no"?>
<!-- Generator: Adobe Illustrator 19.2.1, SVG Export Plug-In . SVG Version: 6.00 Build 0)  -->

<svg
   xmlns:dc="http://purl.org/dc/elements/1.1/"
   xmlns:cc="http://creativecommons.org/ns#"
   xmlns:rdf="http://www.w3.org/1999/02/22-rdf-syntax-ns#"
   xmlns:svg="http://www.w3.org/2000/svg"
   xmlns="http://www.w3.org/2000/svg"
   xmlns:sodipodi="http://sodipodi.sourceforge.net/DTD/sodipodi-0.dtd"
   xmlns:inkscape="http://www.inkscape.org/namespaces/inkscape"
   version="1.1"
   id="Layer_1"
   x="0px"
   y="0px"
   viewBox="0 0 120 100"
   style="enable-background:new 0 0 120 100;"
   xml:space="preserve"
   inkscape:version="0.92.2 (5c3e80d, 2017-08-06)"
   sodipodi:docname="kodak_logo_4.svg"><metadata
     id="metadata21"><rdf:RDF><cc:Work
         rdf:about=""><dc:format>image/svg+xml</dc:format><dc:type
           rdf:resource="http://purl.org/dc/dcmitype/StillImage" /><dc:title></dc:title></cc:Work></rdf:RDF></metadata><defs
     id="defs19"><pattern
       y="0"
       x="0"
       height="6"
       width="6"
       patternUnits="userSpaceOnUse"
       id="EMFhbasepattern" /></defs><sodipodi:namedview
     pagecolor="#ffffff"
     bordercolor="#666666"
     borderopacity="1"
     objecttolerance="10"
     gridtolerance="10"
     guidetolerance="10"
     inkscape:pageopacity="0"
     inkscape:pageshadow="2"
     inkscape:window-width="1995"
     inkscape:window-height="932"
     id="namedview17"
     showgrid="false"
     inkscape:zoom="4.72"
     inkscape:cx="50.720873"
     inkscape:cy="33.446774"
     inkscape:window-x="0"
     inkscape:window-y="0"
     inkscape:window-maximized="0"
     inkscape:current-layer="Layer_1" /><style
     type="text/css"
     id="style3">
	.st0{fill:#ED0000;}
</style><g
     id="g4180"
     transform="translate(0,9.3947343)"><path
       style="fill:#ed0000;fill-opacity:1;fill-rule:evenodd;stroke:none"
       d="m 13.0685,62.4393 c -0.708,-1.0647 -1.9116,-2.6264 -1.9116,-4.2235 0,-1.2067 0.354,-2.4135 0.9558,-3.3717 L 48.4687,4.41019 c 0.354,-0.35492 0.354,-0.95828 0.354,-1.56164 0,-1.56164 -1.2037,-2.7683648 -2.7613,-2.7683648 H 8.39573 c -4.60202,0 -8.3190298,3.9750848 -8.3190298,8.5535248 V 107.088 c 0,4.72 3.7170098,8.447 8.3190298,8.447 0,0 37.06387,0 37.66567,0 1.5576,0 2.7613,-1.207 2.7613,-2.768 0,-0.604 -0.2478,-1.207 -0.4957,-1.81 z"
       id="path4154"
       inkscape:connector-curvature="0"
       transform="matrix(0.62013788,0,0,0.62013788,18.715464,4.3418167)" /><path
       style="fill:#ed0000;fill-opacity:1;fill-rule:evenodd;stroke:none"
       d="m 113.18,41.2152 c 2.761,0 4.106,-1.2067 4.106,-4.0816 0,-2.5554 -1.345,-3.7621 -4.106,-3.7621 -2.761,0 -4.071,1.1003 -4.071,3.7621 0.106,2.7684 1.31,4.0816 4.071,4.0816 z"
       id="path4156"
       inkscape:connector-curvature="0"
       transform="matrix(0.62013788,0,0,0.62013788,18.715464,4.3418167)" /><path
       style="fill:#ed0000;fill-opacity:1;fill-rule:evenodd;stroke:none"
       d="m 113.923,54.1342 h -4 v 7.3468 h 4 c 2.018,0 3.009,-1.3132 3.009,-3.8686 0,-2.5199 -0.991,-3.4782 -3.009,-3.4782 z"
       id="path4158"
       inkscape:connector-curvature="0"
       transform="matrix(0.62013788,0,0,0.62013788,18.715464,4.3418167)" /><path
       style="fill:#ed0000;fill-opacity:1;fill-rule:evenodd;stroke:none"
       d="M 124.154,0.0801852 H 86.5946 c -3.363,0 -5.664,1.5616448 -8.4253,3.9750848 L 15.7235,57.151 c -0.354,0.3549 -0.354,0.6034 -0.354,1.0648 0,0.3904 0.1062,0.7453 0.354,1.1002 l 64.145,53.806 c 1.8055,1.455 4.2127,2.413 6.7261,2.413 h 37.4174 c 4.709,0 8.426,-3.727 8.426,-8.447 V 8.63371 c 0,-4.57844 -3.717,-8.5535248 -8.284,-8.5535248 z M 105.958,9.9824 h 3.965 v 5.7852 l 5.806,-5.7852 h 5.522 l -7.115,6.9919 7.469,6.9919 h -5.664 l -5.876,-5.7852 v 5.7852 h -4.107 z m 7.222,20.0174 c 5.168,0 8.071,2.5199 8.071,7.1338 0,4.8269 -2.903,7.4533 -8.071,7.4533 -5.168,0 -8.071,-2.7683 -8.071,-7.4533 0,-4.6139 2.903,-7.1338 8.071,-7.1338 z m 7.717,27.6126 c 0,4.8269 -2.407,7.2404 -6.974,7.2404 h -7.965 V 50.6205 h 7.965 c 4.815,0 6.974,2.307 6.974,6.9919 z m -5.168,48.0206 -5.912,-5.7853 v 5.7853 h -3.859 V 91.6491 h 3.965 v 5.7851 l 5.806,-5.7851 h 5.274 l -6.867,6.9919 7.469,6.992 z m 1.664,-20.3724 -0.956,-2.4135 h -6.372 l -0.956,2.4135 h -4.213 l 6.018,-14.2323 h 4.815 l 6.018,14.2323 z"
       id="path4160"
       inkscape:connector-curvature="0"
       transform="matrix(0.62013788,0,0,0.62013788,18.715464,4.3418167)" /><path
       style="fill:#ed0000;fill-opacity:1;fill-rule:evenodd;stroke:none"
       d="m 111.268,79.6883 h 3.965 L 113.18,74.755 Z"
       id="path4162"
       inkscape:connector-curvature="0"
       transform="matrix(0.62013788,0,0,0.62013788,18.715464,4.3418167)" /></g></svg>