<?xml version="1.0" encoding="UTF-8" standalone="no"?>
<svg
   xmlns:dc="http://purl.org/dc/elements/1.1/"
   xmlns:cc="http://creativecommons.org/ns#"
   xmlns:rdf="http://www.w3.org/1999/02/22-rdf-syntax-ns#"
   xmlns:svg="http://www.w3.org/2000/svg"
   xmlns="http://www.w3.org/2000/svg"
   xmlns:sodipodi="http://sodipodi.sourceforge.net/DTD/sodipodi-0.dtd"
   xmlns:inkscape="http://www.inkscape.org/namespaces/inkscape"
   width="82px"
   height="18px"
   viewBox="0 0 82 18"
   version="1.1"
   id="svg12"
   sodipodi:docname="logo.svg"
   inkscape:version="0.92.2 (5c3e80d, 2017-08-06)">
  <metadata
     id="metadata18">
    <rdf:RDF>
      <cc:Work
         rdf:about="">
        <dc:format>image/svg+xml</dc:format>
        <dc:type
           rdf:resource="http://purl.org/dc/dcmitype/StillImage" />
        <dc:title />
      </cc:Work>
    </rdf:RDF>
  </metadata>
  <defs
     id="defs16">
    <pattern
       id="EMFhbasepattern"
       patternUnits="userSpaceOnUse"
       width="6"
       height="6"
       x="0"
       y="0" />
    <pattern
       y="0"
       x="0"
       height="6"
       width="6"
       patternUnits="userSpaceOnUse"
       id="EMFhbasepattern-8" />
  </defs>
  <sodipodi:namedview
     pagecolor="#ffffff"
     bordercolor="#666666"
     borderopacity="1"
     objecttolerance="10"
     gridtolerance="10"
     guidetolerance="10"
     inkscape:pageopacity="0"
     inkscape:pageshadow="2"
     inkscape:window-width="2031"
     inkscape:window-height="970"
     id="namedview14"
     showgrid="false"
     inkscape:zoom="13.853658"
     inkscape:cx="37.441456"
     inkscape:cy="11.569479"
     inkscape:window-x="1435"
     inkscape:window-y="112"
     inkscape:window-maximized="0"
     inkscape:current-layer="svg12" />
  <style
     id="style3"
     type="text/css">
	.st0{fill:#ED0000;}
</style>
  <g
     id="g80"
     transform="matrix(0.0990054,0,0,0.0990054,36.609083,4.6951978)">
    <path
       inkscape:connector-curvature="0"
       style="fill:#6b6f6e;fill-opacity:1;fill-rule:evenodd;stroke:none"
       d="m 243.8151,117.07094 h -18.64486 v -16.58928 h 19.89543 c 6.51813,0 10.04246,4.21315 9.96667,8.38869 -0.0379,4.10029 -3.60013,8.20059 -11.21724,8.20059 z m -1.28846,-24.526553 h -17.3564 v -15.94979 h 17.65957 c 14.24892,0 13.60468,15.94979 -0.30317,15.94979 z m -27.28517,-23.88706 v 56.350893 c 0,0.75234 0.22738,0.97805 0.9474,0.97805 h 23.1166 c 11.21724,0 25.73143,-1.99372 26.07249,-16.25072 0.11369,-5.11597 -2.50114,-10.194323 -8.45082,-12.714693 -1.32636,-0.56426 -1.85691,-1.01567 -0.30317,-1.69278 1.51584,-0.67712 2.84221,-1.57994 3.8654,-2.78369 2.16008,-2.5956 3.14537,-6.28211 2.918,-9.96862 -0.87161,-12.78992 -13.26362,-14.89649 -23.79873,-14.89649 h -23.41977 c -0.72002,0 -0.9474,0.2257 -0.9474,0.97805 z"
       id="path17" />
    <path
       inkscape:connector-curvature="0"
       style="fill:#6b6f6e;fill-opacity:1;fill-rule:evenodd;stroke:none"
       d="m 131.188,125.64771 h 10.91407 c 3.37275,-6.31972 8.33713,-17.90589 11.97516,-25.0532 0.87161,-1.730403 1.47794,-3.235093 2.34955,-4.965493 l 4.20646,-8.87771 c 0.49265,-0.94044 -0.0379,-0.6395 1.0232,-0.90282 l 9.32243,20.050083 c 0.34106,0.82758 1.06109,2.3699 1.25057,3.19748 H 157.1847 c -0.75792,1.42946 -3.44854,6.73352 -3.56223,7.97489 h 22.81343 l 4.16857,8.57677 h 11.21723 l -7.50342,-14.52032 c -2.50114,-5.04073 -4.85069,-9.66768 -7.35183,-14.670793 l -13.14994,-25.46699 c -2.23586,-3.94983 -2.57693,-5.00312 -5.04017,-0.11285 l -5.57072,10.72096 c -2.50114,5.00312 -4.8507,9.63006 -7.38974,14.63317 -2.50114,5.040743 -4.85069,9.667683 -7.35183,14.670803 -1.17478,2.25704 -6.97288,13.35418 -7.27605,14.74602 z"
       id="path19" />
    <path
       inkscape:connector-curvature="0"
       style="fill:#6b6f6e;fill-opacity:1;fill-rule:evenodd;stroke:none"
       d="m 66.992071,125.98627 h 41.079339 c 0.75792,0 0.98529,-0.22571 0.98529,-0.97805 v -7.93728 H 76.617671 V 67.679277 h -9.6256 z"
       id="path21" />
    <path
       inkscape:connector-curvature="0"
       style="fill:#6b6f6e;fill-opacity:1;fill-rule:evenodd;stroke:none"
       d="m -54.919559,95.704247 c 0,9.855763 2.19797,17.040693 8.26134,23.021863 2.65272,2.63322 4.54753,4.17553 8.22345,5.86832 7.16235,3.31033 18.2659,3.79935 25.61773,0.33855 7.3518404,-3.42318 12.01306038,-9.96861 13.68048038,-17.75542 C 1.6213614,103.71676 1.8866414,99.842167 1.8866414,95.403307 H -26.990159 c 0,2.89654 -0.41686,4.13792 0.9474,4.13792 h 23.1166004 c 0,9.178653 -3.78961,17.304013 -10.9519704,20.990513 -8.71609,4.47648 -20.1986,3.04701 -27.47464,-2.89654 -3.63802,-2.97177 -4.8128,-5.04073 -6.93498,-9.36673 -6.10127,-12.413753 0.15158,-37.090773 22.58605,-37.090773 10.42142,0 12.99835,2.10657 19.8575404,6.6959 0.72003,-1.01568 1.8948,-2.1442 2.57693,-3.15987 -3.22116,-4.81503 -14.9689404,-7.97489 -21.4870704,-7.97489 -17.47008,0 -30.16526,13.20371 -30.16526,28.96541 z"
       id="path23" />
    <path
       inkscape:connector-curvature="0"
       style="fill:#6b6f6e;fill-opacity:1;fill-rule:evenodd;stroke:none"
       d="m -166.90243,68.657327 v 46.495123 h 4.50964 V 72.155747 c 1.55373,0 3.10747,-0.0752 4.66121,-0.0752 9.24664,0 21.52496,-0.45141 28.95259,6.84637 5.68441,5.56738 7.99607,12.86516 7.46553,19.862 -0.83372,10.194323 -7.7687,19.673913 -19.36489,22.119043 -3.03169,0.63949 -5.68441,0.60188 -8.7161,0.60188 h -17.50798 v 4.13791 h 17.09113 c 3.41064,0 6.63181,0.11285 9.96666,-0.45141 13.83206,-2.44513 22.47237,-13.84321 23.1545,-26.595513 0.53054,-9.36674 -2.84221,-18.13159 -10.15615,-24.15038 -8.03396,-6.54543 -19.66805,-6.95922 -30.88529,-6.84637 -2.80431,0.0376 -5.53282,0.0752 -8.18555,0.0752 -0.75792,0 -0.9853,0.2257 -0.9853,0.97805 z"
       id="path25" />
    <path
       inkscape:connector-curvature="0"
       style="fill:#6b6f6e;fill-opacity:1;fill-rule:evenodd;stroke:none"
       d="m 31.407671,68.657327 v 56.350893 c 0,1.31661 0.9853,0.97805 3.52433,0.97805 0.72003,0 0.94741,-0.22571 0.94741,-0.97805 V 68.657327 c 0,-1.31661 -0.9853,-0.97805 -3.52434,-0.97805 -0.72002,0 -0.9474,0.2257 -0.9474,0.97805 z"
       id="path27" />
    <path
       inkscape:connector-curvature="0"
       style="fill:#6b6f6e;fill-opacity:1;fill-rule:evenodd;stroke:none"
       d="m -88.609159,125.98627 h 4.50963 V 68.017827 h -4.50963 z"
       id="path29" />
    <path
       inkscape:connector-curvature="0"
       style="fill:#1c4281;fill-opacity:1;fill-rule:nonzero;stroke:none"
       d="m -211.84716,28.256221 h 37.51711 c 9.96666,0 12.77097,-6.319726 12.77097,-18.093977 V -1.0853633 c 0,-11.7742507 -2.23587,-19.2224987 -12.77097,-19.2224987 h -37.51711 z m -21.146,-64.852424 h 63.89276 c 25.88301,0 26.982,12.752304 28.8768,29.0782617 V 17.685727 c -2.23587,19.410587 -7.54131,26.896452 -28.8768,28.664471 h -63.89276 z"
       id="path31" />
    <path
       inkscape:connector-curvature="0"
       style="fill:#1c4281;fill-opacity:1;fill-rule:nonzero;stroke:none"
       d="m -108.95935,1.6607077 h 35.584411 c 5.83599,0 8.22344,-4.551707 8.22344,-10.495259 v -2.7460707 c 0,-7.335396 -3.37275,-8.72724 -10.15614,-8.72724 h -33.651711 z m -21.52496,-38.2569107 h 64.953851 c 20.46387,0 21.71444,13.316565 21.71444,24.639407 v 5.2664377 c -0.53054,10.457642 -4.7749,13.956061 -10.04245,16.9278373 l -0.11369,0.677114 c 5.94968,4.025063 9.54981,7.5611 9.20874,21.329074 0.53055,9.592441 2.27377,14.106531 2.27377,14.106531 h -20.91863 c -2.38745,-1.354227 -2.16008,-9.855763 -2.16008,-9.855763 0,-8.72724 -0.75792,-16.664515 -9.5498,-17.717803 h -33.841191 v 27.573566 h -21.52496 z"
       id="path33" />
    <path
       inkscape:connector-curvature="0"
       style="fill:#1c4281;fill-opacity:1;fill-rule:nonzero;stroke:none"
       d="m -31.802959,-36.596203 h 76.77742 v 16.288341 h -55.29036 v 16.2507227 h 52.37236 V 11.177914 h -52.37236 v 17.078307 h 56.54093 v 18.093977 h -78.02799 z"
       id="path35" />
    <path
       inkscape:connector-curvature="0"
       style="fill:#1c4281;fill-opacity:1;fill-rule:nonzero;stroke:none"
       d="m 187.31207,-36.596203 h 76.77743 v 16.288341 H 208.79914 V -4.0571393 H 261.1715 V 11.177914 h -52.37236 v 17.078307 h 56.54093 v 18.093977 h -78.028 z"
       id="path37" />
    <path
       inkscape:connector-curvature="0"
       style="fill:#1c4281;fill-opacity:1;fill-rule:nonzero;stroke:none"
       d="m 56.153801,-36.596203 h 32.43903 l 25.655629,53.341495 h 0.64424 l 24.36717,-53.341495 h 34.18224 v 82.946401 h -20.95652 v -60.037395 h -1.21267 L 123.07825,46.350198 H 106.93452 L 77.754551,-13.687197 h -1.17477 v 60.037395 h -20.42598 z"
       id="path39" />
    <path
       inkscape:connector-curvature="0"
       style="fill:#1c4281;fill-opacity:1;fill-rule:nonzero;stroke:none"
       d="m 274.58671,-36.596203 h 21.52496 v 64.852424 h 48.35538 v 18.093977 h -69.88034 z"
       id="path41" />
    <path
       inkscape:connector-curvature="0"
       style="fill:#1c4281;fill-opacity:1;fill-rule:nonzero;stroke:none"
       d="m 318.39455,-28.019433 c 0.9853,0.03762 1.55374,-0.188087 1.55374,-1.354227 0,-1.090905 -1.13688,-1.090905 -2.04638,-1.090905 h -2.23587 v 2.445132 z m 3.22117,5.191204 h -2.16008 l -2.04638,-3.724124 h -1.74322 v 3.724124 h -1.9327 v -9.065798 h 4.58542 c 2.12218,0 3.56223,0.376175 3.56223,2.783689 0,1.655166 -0.87161,2.33228 -2.50114,2.445133 z m 2.31166,-4.589325 c 0,-3.611272 -2.95589,-6.507813 -6.51812,-6.507813 -3.67592,0 -6.55602,2.896541 -6.55602,6.507813 0,3.573655 2.8801,6.470196 6.55602,6.470196 3.56223,0 6.51812,-2.896541 6.51812,-6.470196 z m -15.00684,0 c 0,-4.66456 3.78961,-8.426301 8.48872,-8.426301 4.66121,0 8.45082,3.761741 8.45082,8.426301 0,4.66456 -3.78961,8.388684 -8.45082,8.388684 -4.69911,0 -8.48872,-3.724124 -8.48872,-8.388684 z"
       id="path43" />
  </g>
</svg>
