<svg id="logo" xmlns="http://www.w3.org/2000/svg" width="319.676" height="40" viewBox="0 0 319.676 40">
  <g id="_2551973691136" transform="translate(0 0)">
    <g id="Group_4" data-name="Group 4" transform="translate(212.824 0.669)">
      <path id="Path_32" data-name="Path 32" d="M1855.062,23.205a15.7,15.7,0,0,0-6.388-12.66c-4.121-3.186-9.977-5.046-16.811-5.046h-18.578l-6.034,7.556h24.612a15.3,15.3,0,0,1,9.44,2.986,9.649,9.649,0,0,1,3.919,7.685,9.4,9.4,0,0,1-3.841,7.635,15.572,15.572,0,0,1-9.519,2.86h-15.915V20.062h-10.023v21.6h25.938c6.716,0,12.531-2,16.663-5.32a16.685,16.685,0,0,0,6.536-13.138Zm1.315,0c0-11.154-10.281-18.955-24.514-18.955h-19.224l-8.029,10.056h27.253c6.812,0,12.045,3.987,12.045,9.42,0,5.547-5.05,9.247-12.045,9.247h-14.6V18.813H1804.61v24.1h27.253C1845.975,42.912,1856.377,34.417,1856.377,23.205Z" transform="translate(-1749.525 -4.25)" fill="#31affd" fill-rule="evenodd"/>
      <path id="Path_33" data-name="Path 33" d="M1457.454,41.662h33.166c6.081,0,9.942-1.1,12.245-2.937,2.186-1.74,2.987-4.228,2.987-7.083a7.807,7.807,0,0,0-1.458-4.732,7.391,7.391,0,0,0-3.984-2.682l-.082-2.368a6.934,6.934,0,0,0,3.447-2.59A7.5,7.5,0,0,0,1505,14.942a7.837,7.837,0,0,0-3.606-6.871c-2.56-1.711-6.371-2.572-11.078-2.572h-24.78l-6.08,7.556h31.408a5.956,5.956,0,0,1,3.4.9,3.28,3.28,0,0,1,1.442,2.833,3.421,3.421,0,0,1-1.42,2.907,5.784,5.784,0,0,1-3.423.944h-17.416l-4.54,5.764h21.773a6.473,6.473,0,0,1,3.749.917,3.353,3.353,0,0,1,1.46,2.934,3.475,3.475,0,0,1-1.444,3.02,6.338,6.338,0,0,1-3.765.945h-27.216Zm-2.664,1.249h35.83c12.835,0,16.547-4.854,16.547-11.269a8.578,8.578,0,0,0-6.387-8.611,8.139,8.139,0,0,0,5.535-8.09c0-7.109-6.266-10.692-16-10.692h-25.428L1456.8,14.306h34.066c1.764,0,3.527.577,3.527,2.485,0,1.964-1.7,2.6-3.527,2.6H1472.8l-6.508,8.265h24.393c2.737,0,3.893.925,3.893,2.6,0,1.792-1.156,2.717-3.893,2.717h-27.86Z" transform="translate(-1454.79 -4.25)" fill="#31affd" fill-rule="evenodd"/>
    </g>
    <g id="Group_5" data-name="Group 5">
      <path id="Path_34" data-name="Path 34" d="M1086.524,18.755c0-8.611-7.36-14.5-19.952-14.5h-25.549l-8.333,10.056h35.038c3.894,0,6.144,1.675,6.144,4.392,0,2.658-2.25,4.449-6.144,4.449H1032.69V42.912h12.531V33.029h21.291c12.652,0,20.012-5.721,20.012-14.274Z" transform="translate(-870.076 -3.581)" fill="#31affd"/>
      <path id="Path_35" data-name="Path 35" d="M314.417,0q-1.3,0-2.551.036L302.725,11.21a27.036,27.036,0,0,1,6.7-1.023L317.71.06Q316.11,0,314.417,0Zm-4.71.127a58.93,58.93,0,0,0-6.431.694l-18.4,22.484a18.293,18.293,0,0,0,1.505,5.329L309.707.127ZM300.79,1.313c-10.744,2.463-16.12,8.475-16.12,18.659,0,.345.006.686.019,1.022l16.1-19.681Zm-13.58,28.86a15.341,15.341,0,0,0,2.975,3.532l7.647-9.346a13.059,13.059,0,0,1-.63-4.388,17.692,17.692,0,0,1,.123-2.161Zm4.234,4.539a20.936,20.936,0,0,0,4.017,2.257l6.831-8.349a7.255,7.255,0,0,1-3.671-2.681ZM311.576,10.1q1.346-.034,2.841-.031,1.594,0,3.019.036L325.095.748q-2.527-.4-5.385-.586L311.576,10.1ZM297.037,37.589a34.719,34.719,0,0,0,4.789,1.314l7.447-9.1a31.368,31.368,0,0,1-5.3-.685Zm22.417-27.4a32.239,32.239,0,0,1,5.326.658l6.932-8.474a35.042,35.042,0,0,0-4.8-1.3ZM303.64,39.233q2.52.407,5.374.6l8.127-9.93q-1.294.029-2.724.028c-1.105,0-2.146-.012-3.13-.04l-7.647,9.346Zm22.828-27.9a7.287,7.287,0,0,1,3.708,2.633l7.147-8.738a21.146,21.146,0,0,0-4.031-2.237Zm-15.455,28.6q1.651.065,3.4.066,1.242,0,2.433-.031l9.125-11.156a27.578,27.578,0,0,1-6.684,1Zm19.968-24.405a12.922,12.922,0,0,1,.652,4.443,17.916,17.916,0,0,1-.112,2.063l10.062-12.3a15.307,15.307,0,0,0-2.993-3.508Zm-11.975,24.35a58.567,58.567,0,0,0,6.426-.688L356.563,1.139a28.961,28.961,0,0,0-8.254,2.924Zm8.911-1.176a26.7,26.7,0,0,0,8.709-3.479l16.3-19.928a6.352,6.352,0,0,1,2.464-3.012L365.367.091a61.963,61.963,0,0,0-6.362.61Zm14.561-8.084a15.493,15.493,0,0,0,3.072,3.411l7.478-9.141a12.1,12.1,0,0,1-.841-4.916c0-.442.014-.866.039-1.271Zm16.079-19.654a32.5,32.5,0,0,1,6.527-.811L373.319.087Q371.429,0,369.4,0q-.961,0-1.891.019ZM346.839,35a21.571,21.571,0,0,0,4.089,2.17l6.853-8.376a7.845,7.845,0,0,1-3.866-2.441L346.839,35Zm20.379-24.909q1.049-.018,2.184-.018,1.951,0,3.648.055l7.6-9.286q-2.5-.429-5.343-.637ZM352.525,37.764a36.328,36.328,0,0,0,4.842,1.248l7.51-9.178a35.57,35.57,0,0,1-5.376-.6Zm22.53-27.539a28.482,28.482,0,0,1,5.247.752l6.892-8.423a33.716,33.716,0,0,0-4.746-1.367ZM359.2,39.323q2.542.38,5.417.545l8.171-9.989c-1.057.034-2.184.048-3.384.048-.871,0-1.7-.007-2.5-.024Zm22.746-27.8a6.833,6.833,0,0,1,3.5,2.889l7.269-8.883a20.3,20.3,0,0,0-3.96-2.327ZM366.626,39.958Q367.98,40,369.4,40q1.59,0,3.1-.054l9.377-11.462a22.691,22.691,0,0,1-6.921,1.293l-8.328,10.181Zm19.524-23.866a13.938,13.938,0,0,1,.468,3.88,15.666,15.666,0,0,1-.263,3.036l10.486-12.815a15.205,15.205,0,0,0-2.894-3.631ZM374.671,39.838a56.329,56.329,0,0,0,6.5-.781l17.836-21.8a18.83,18.83,0,0,0-1.379-5.48Zm9.032-1.328c10.275-2.579,15.446-8.579,15.446-18.539,0-.112,0-.223,0-.336Z" transform="translate(-239.844 0)" fill="#31affd"/>
      <path id="Path_36" data-name="Path 36" d="M12.593,32.972V4.25H0V42.912H35.951L44.1,32.972Z" transform="translate(0 -3.581)" fill="#31affd"/>
    </g>
  </g>
</svg>
